<svg xmlns="http://www.w3.org/2000/svg" viewBox="0 0 32 32">
  <g fill="none" fill-rule="evenodd">
    <circle cx="16" cy="16" r="16" fill="#F3BA2F"/>
    <path fill="#FFF" d="M12.116 14.404L16 10.52l3.886 3.886 2.26-2.26L16 6l-6.146 6.144 2.262 2.26zM6 16l2.26-2.26L10.52 16l-2.26 2.26L6 16zm6.116 1.596L16 21.48l3.886-3.886 2.26 2.26L16 26l-6.146-6.144-.002.002 2.264-2.262zM21.48 16l2.26-2.26L26 16l-2.26 2.26L21.48 16zm-3.188-.002l2.262-2.262L16.002 10.52l-4.552 3.216 2.262 2.262L16.002 16l1.29-.002z"/>
  </g>
</svg>