<svg xmlns="http://www.w3.org/2000/svg" viewBox="0 0 32 32">
  <g fill="none" fill-rule="evenodd">
    <circle cx="16" cy="16" r="16" fill="#F7931A"/>
    <path fill="#FFF" fill-rule="nonzero" d="M23.189 14.02c.314-2.096-1.283-3.223-3.465-3.975l.708-2.84-1.728-.43-.69 2.765c-.454-.114-.92-.22-1.385-.326l.695-2.783L15.596 6l-.708 2.84c-.376-.086-.75-.17-1.104-.26l.002-.007-2.39-.595-.46 1.843s1.283.294 1.262.312c.7.175.826.638.805 1.006l-.806 3.235c.048.012.11.03.18.057l-.183-.045-1.13 4.532c-.086.212-.303.531-.793.41.018.025-1.262-.313-1.262-.313l-.39 1.567 2.353.586c.436.11.862.24 1.279.368l-.715 2.872 1.727.43.708-2.84c.472.127.93.245 1.378.357l-.706 2.828 1.728.43.715-2.866c2.948.558 5.164.333 6.097-2.333.752-2.146-.037-3.385-1.588-4.192 1.13-.26 1.98-1.003 2.207-2.538zm-3.95 5.538c-.533 2.147-4.148.986-5.32.695l.957-3.84c1.172.293 4.929.872 4.363 3.145zm.535-5.569c-.487 1.953-3.495.96-4.466.719l.86-3.448c.97.24 4.09.712 3.606 2.729z"/>
  </g>
</svg>