<svg xmlns="http://www.w3.org/2000/svg" viewBox="0 0 32 32">
  <g fill="none" fill-rule="evenodd">
    <circle cx="16" cy="16" r="16" fill="#2775CA"/>
    <path fill="#FFF" fill-rule="nonzero" d="M20.022 18.124c0-1.093-.014-1.976-.042-2.647H12.23c-.028.67-.042 1.554-.042 2.647H7.5c0-1.093.014-1.976.042-2.647h4.646V12.23H7.542c.028-.67.042-1.554.042-2.647h4.646V6.876h2.75V9.583h4.646c.028.67.042 1.554.042 2.647H19.27c-.028-.67-.042-1.554-.042-2.647h-4.646v2.647h4.646c.028.67.042 1.554.042 2.647H16.98v2.647h4.646c-.028.67-.042 1.554-.042 2.647H12.23v-2.647h7.792zM24.5 15.477V12.23h-2.75v3.247h-2.646V12.23h-2.75v3.247h-2.646V12.23H12.23v3.247H9.583v2.75h2.647v3.247h2.75V18.227h2.646v3.247h2.75V18.227h2.646v3.247H24.5v-2.75h-2.646V15.477h2.646z"/>
  </g>
</svg>